<svg width="29" height="29" viewBox="0 0 29 29" fill="none" xmlns="http://www.w3.org/2000/svg">
<g opacity="0.8" filter="url(#filter0_d_52_1303)">
<path d="M17.2786 10.8797C17.3836 10.7753 17.4364 10.6533 17.4368 10.5136C17.4372 10.374 17.3852 10.2517 17.2808 10.1466L14.3577 7.20534C14.1837 7.03026 13.9918 6.98604 13.7821 7.07266C13.5724 7.15928 13.4672 7.32476 13.4664 7.56911L13.4483 13.4335C13.4475 13.6779 13.5517 13.844 13.7609 13.9319C13.9701 14.0198 14.1622 13.9768 14.3373 13.8028L17.2786 10.8797ZM24.9768 10.537C24.9723 11.9856 24.693 13.3461 24.1389 14.6186C23.5848 15.891 22.8354 16.997 21.8907 17.9365C20.9453 18.8761 19.8347 19.6187 18.5589 20.1642C17.2831 20.7097 15.9208 20.9805 14.4722 20.9767C13.0235 20.9723 11.663 20.693 10.3906 20.1389C9.11817 19.5848 8.01217 18.8354 7.07259 17.8907C6.13301 16.9453 5.39047 15.8347 4.84497 14.5589C4.29947 13.283 4.02862 11.9208 4.0324 10.4722C4.03688 9.02351 4.31617 7.66298 4.87025 6.39057C5.42433 5.11815 6.17372 4.01215 7.11844 3.07257C8.06385 2.13299 9.17446 1.39011 10.4503 0.843912C11.7261 0.297714 13.0883 0.0272066 14.537 0.0323869C15.9856 0.036869 17.3462 0.31615 18.6186 0.87023C19.891 1.42431 20.997 2.17371 21.9366 3.11842C22.8761 4.06383 23.619 5.17445 24.1652 6.45027C24.7114 7.72608 24.9819 9.08831 24.9768 10.537ZM22.8823 10.5305C22.8896 8.1917 22.0841 6.2082 20.4659 4.57999C18.8478 2.95178 16.8693 2.13406 14.5305 2.12682C12.1917 2.11958 10.2082 2.92505 8.58 4.54322C6.9518 6.16138 6.13407 8.13985 6.12684 10.4786C6.1196 12.8174 6.92506 14.8009 8.54323 16.4291C10.1614 18.0573 12.1399 18.8751 14.4787 18.8823C16.8174 18.8895 18.8009 18.0841 20.4291 16.4659C22.0574 14.8477 22.8751 12.8693 22.8823 10.5305Z" fill="url(#paint0_linear_52_1303)" shape-rendering="crispEdges"/>
</g>
<defs>
<filter id="filter0_d_52_1303" x="0.0323486" y="0.0323181" width="28.9445" height="28.9445" filterUnits="userSpaceOnUse" color-interpolation-filters="sRGB">
<feFlood flood-opacity="0" result="BackgroundImageFix"/>
<feColorMatrix in="SourceAlpha" type="matrix" values="0 0 0 0 0 0 0 0 0 0 0 0 0 0 0 0 0 0 127 0" result="hardAlpha"/>
<feOffset dy="4"/>
<feGaussianBlur stdDeviation="2"/>
<feComposite in2="hardAlpha" operator="out"/>
<feColorMatrix type="matrix" values="0 0 0 0 0 0 0 0 0 0 0 0 0 0 0 0 0 0 0.25 0"/>
<feBlend mode="normal" in2="BackgroundImageFix" result="effect1_dropShadow_52_1303"/>
<feBlend mode="normal" in="SourceGraphic" in2="effect1_dropShadow_52_1303" result="shape"/>
</filter>
<linearGradient id="paint0_linear_52_1303" x1="9.27139" y1="20.9606" x2="22.8973" y2="-1.91854" gradientUnits="userSpaceOnUse">
<stop stop-color="#00FF38"/>
<stop offset="0.33125" stop-color="#2B948D"/>
<stop offset="1" stop-color="#F500EC" stop-opacity="0.93"/>
</linearGradient>
</defs>
</svg>
